<svg xmlns="http://www.w3.org/2000/svg" viewBox="0 0 32 32">
  <defs>
    <linearGradient id="g" x1="0" y1="0" x2="1" y2="1">
      <stop stop-color="#8b5cf6" />
      <stop offset="0.5" stop-color="#6366f1" />
      <stop offset="1" stop-color="#06b6d4" />
    </linearGradient>
  </defs>
  <rect width="32" height="32" rx="8" fill="url(#g)" />
  <g transform="translate(4 4)" fill="none" stroke="#fff" stroke-width="2" stroke-linecap="round" stroke-linejoin="round">
    <path d="M12.83 2.18a2 2 0 0 0-1.66 0L2.6 6.08a1 1 0 0 0 0 1.83l8.58 3.91a2 2 0 0 0 1.66 0l8.58-3.9a1 1 0 0 0 0-1.83Z" />
    <path d="m22 17.65-9.17 4.16a2 2 0 0 1-1.66 0L2 17.65M22 12.65l-9.17 4.16a2 2 0 0 1-1.66 0L2 12.65" />
  </g>
</svg>
